<?xml version="1.0" encoding="UTF-8" standalone="no"?>
<svg width="155px" height="156px" viewBox="0 0 155 156" version="1.1" xmlns="http://www.w3.org/2000/svg" xmlns:xlink="http://www.w3.org/1999/xlink" xmlns:sketch="http://www.bohemiancoding.com/sketch/ns">
    <!-- Generator: Sketch 3.4.2 (15855) - http://www.bohemiancoding.com/sketch -->
    <title>Rectangle-11 + Imported-Layers</title>
    <desc>Created with Sketch.</desc>
    <defs></defs>
    <g id="Welcome" stroke="none" stroke-width="1" fill="none" fill-rule="evenodd" sketch:type="MSPage">
        <g id="A4" sketch:type="MSArtboardGroup" transform="translate(-34.000000, -656.000000)" stroke="#FFFFFF">
            <g id="App-streker_logo-ikon" sketch:type="MSLayerGroup" transform="translate(-2.000000, 641.000000)">
                <rect id="Rectangle-11" stroke-width="3" sketch:type="MSShapeGroup" x="39.015444" y="18.3" width="149.420849" height="149.727273" rx="33"></rect>
                <path d="M39.015444,18.4034532 L39.1185374,18.3 L188.436293,167.923819 L188.333054,168.027273 L39.015444,18.4034532 L39.015444,18.4034532 L39.015444,18.4034532 L39.015444,18.4034532 Z M188.333054,18.3 L188.436293,18.4034532 L39.1185374,168.027273 L39.015444,167.923819 L188.333054,18.3 L188.333054,18.3 L188.333054,18.3 L188.333054,18.3 Z M39.015444,92.7454065 L187.60154,92.7454065 L187.60154,92.8910495 L39.015444,92.8910495 L39.015444,92.7454065 L39.015444,92.7454065 L39.015444,92.7454065 Z M113.308492,18.3 L113.453843,18.3 L113.453843,167.190805 L113.308492,167.190805 L113.308492,18.3 L113.308492,18.3 L113.308492,18.3 Z M178.419253,18.3 L178.564604,18.3 L178.564604,167.190805 L178.419253,167.190805 L178.419253,18.3 L178.419253,18.3 L178.419253,18.3 Z M49.0324842,18.3 L49.1778352,18.3 L49.1778352,167.190805 L49.0324842,167.190805 L49.0324842,18.3 L49.0324842,18.3 L49.0324842,18.3 Z M85.7616316,18.3 L85.9069825,18.3 L85.9069825,167.190805 L85.7616316,167.190805 L85.7616316,18.3 L85.7616316,18.3 L85.7616316,18.3 Z M141.690106,18.3 L141.835457,18.3 L141.835457,167.190805 L141.690106,167.190805 L141.690106,18.3 L141.690106,18.3 L141.690106,18.3 Z M39.015444,121.18522 L187.60154,121.18522 L187.60154,121.330872 L39.015444,121.330872 L39.015444,121.18522 L39.015444,121.18522 L39.015444,121.18522 Z M39.015444,65.1420525 L187.60154,65.1420525 L187.60154,65.2877039 L39.015444,65.2877039 L39.015444,65.1420525 L39.015444,65.1420525 L39.015444,65.1420525 Z M39.015444,157.989689 L187.60154,157.989689 L187.60154,158.135341 L39.015444,158.135341 L39.015444,157.989689 L39.015444,157.989689 L39.015444,157.989689 Z M39.015444,28.3375833 L187.60154,28.3375833 L187.60154,28.4832346 L39.015444,28.4832346 L39.015444,28.3375833 L39.015444,28.3375833 L39.015444,28.3375833 Z M113.308492,52.5950734 C135.437482,52.5950734 153.376653,70.5710303 153.376653,92.7454065 C153.376653,114.919774 135.437482,132.895731 113.308492,132.895731 C91.1795026,132.895731 73.2403313,114.919774 73.2403313,92.7454065 C73.2403313,70.5710303 91.1795026,52.5950734 113.308492,52.5950734 L113.308492,52.5950734 L113.308492,52.5950734 L113.308492,52.5950734 Z M113.725869,28.3375833 C149.45508,28.3375833 178.419253,57.3611504 178.419253,93.1636364 C178.419253,128.966122 149.45508,157.989689 113.725869,157.989689 C77.9966574,157.989689 49.0324842,128.966122 49.0324842,93.1636364 C49.0324842,57.3611504 77.9966574,28.3375833 113.725869,28.3375833 L113.725869,28.3375833 L113.725869,28.3375833 L113.725869,28.3375833 Z" id="Imported-Layers" sketch:type="MSShapeGroup"></path>
            </g>
        </g>
    </g>
</svg>